<?xml version="1.0" encoding="UTF-8" standalone="no"?><!-- Generator: Gravit.io --><svg xmlns="http://www.w3.org/2000/svg" xmlns:xlink="http://www.w3.org/1999/xlink" style="isolation:isolate" viewBox="0 0 160 80" width="160pt" height="80pt"><defs><clipPath id="_clipPath_TcrDzBbM9FdvleAGlPKFLYM7u66yPlnv"><rect width="160" height="80"/></clipPath></defs><g clip-path="url(#_clipPath_TcrDzBbM9FdvleAGlPKFLYM7u66yPlnv)"><path d=" M 4.512 52.178 L 4.512 36.006 L 4.512 36.006 Q 4.512 34.775 4.644 33.604 L 4.644 33.604 L 4.644 33.604 Q 4.775 32.432 5.244 31.509 L 5.244 31.509 L 5.244 31.509 Q 5.713 30.586 6.592 30.015 L 6.592 30.015 L 6.592 30.015 Q 7.471 29.443 8.965 29.443 L 8.965 29.443 L 8.965 29.443 Q 10.459 29.443 11.338 30.015 L 11.338 30.015 L 11.338 30.015 Q 12.217 30.586 12.686 31.509 L 12.686 31.509 L 12.686 31.509 Q 13.154 32.432 13.286 33.604 L 13.286 33.604 L 13.286 33.604 Q 13.418 34.775 13.418 36.006 L 13.418 36.006 L 13.418 52.178 L 13.418 52.178 Q 13.418 53.408 13.286 54.595 L 13.286 54.595 L 13.286 54.595 Q 13.154 55.781 12.686 56.704 L 12.686 56.704 L 12.686 56.704 Q 12.217 57.627 11.338 58.184 L 11.338 58.184 L 11.338 58.184 Q 10.459 58.74 8.965 58.74 L 8.965 58.74 L 8.965 58.74 Q 7.471 58.74 6.592 58.184 L 6.592 58.184 L 6.592 58.184 Q 5.713 57.627 5.244 56.704 L 5.244 56.704 L 5.244 56.704 Q 4.775 55.781 4.644 54.595 L 4.644 54.595 L 4.644 54.595 Q 4.512 53.408 4.512 52.178 L 4.512 52.178 L 4.512 52.178 Z  M 13.477 22.178 L 13.477 22.178 L 13.477 22.178 Q 13.477 24.434 12.305 25.532 L 12.305 25.532 L 12.305 25.532 Q 11.133 26.631 9.023 26.631 L 9.023 26.631 L 9.023 26.631 Q 6.914 26.631 5.742 25.532 L 5.742 25.532 L 5.742 25.532 Q 4.57 24.434 4.57 22.178 L 4.57 22.178 L 4.57 22.178 Q 4.57 19.834 5.742 18.779 L 5.742 18.779 L 5.742 18.779 Q 6.914 17.725 9.023 17.725 L 9.023 17.725 L 9.023 17.725 Q 11.279 17.725 12.378 18.779 L 12.378 18.779 L 12.378 18.779 Q 13.477 19.834 13.477 22.178 Z  M 46.641 39.873 L 46.641 52.061 L 46.641 52.061 Q 46.641 53.32 46.494 54.521 L 46.494 54.521 L 46.494 54.521 Q 46.348 55.723 45.864 56.66 L 45.864 56.66 L 45.864 56.66 Q 45.381 57.598 44.487 58.169 L 44.487 58.169 L 44.487 58.169 Q 43.594 58.74 42.07 58.74 L 42.07 58.74 L 42.07 58.74 Q 40.576 58.74 39.697 58.169 L 39.697 58.169 L 39.697 58.169 Q 38.818 57.598 38.35 56.66 L 38.35 56.66 L 38.35 56.66 Q 37.881 55.723 37.749 54.521 L 37.749 54.521 L 37.749 54.521 Q 37.617 53.32 37.617 52.061 L 37.617 52.061 L 37.617 40.635 L 37.617 40.635 Q 37.617 39.814 37.544 39.023 L 37.544 39.023 L 37.544 39.023 Q 37.471 38.232 37.207 37.632 L 37.207 37.632 L 37.207 37.632 Q 36.943 37.031 36.431 36.665 L 36.431 36.665 L 36.431 36.665 Q 35.918 36.299 35.039 36.299 L 35.039 36.299 L 35.039 36.299 Q 33.838 36.299 33.105 37.09 L 33.105 37.09 L 33.105 37.09 Q 32.373 37.881 31.948 39.258 L 31.948 39.258 L 31.948 39.258 Q 31.523 40.635 31.377 42.495 L 31.377 42.495 L 31.377 42.495 Q 31.23 44.355 31.23 46.494 L 31.23 46.494 L 31.23 52.061 L 31.23 52.061 Q 31.23 53.32 31.084 54.521 L 31.084 54.521 L 31.084 54.521 Q 30.938 55.723 30.454 56.66 L 30.454 56.66 L 30.454 56.66 Q 29.971 57.598 29.077 58.169 L 29.077 58.169 L 29.077 58.169 Q 28.184 58.74 26.66 58.74 L 26.66 58.74 L 26.66 58.74 Q 25.166 58.74 24.287 58.169 L 24.287 58.169 L 24.287 58.169 Q 23.408 57.598 22.939 56.66 L 22.939 56.66 L 22.939 56.66 Q 22.471 55.723 22.339 54.521 L 22.339 54.521 L 22.339 54.521 Q 22.207 53.32 22.207 52.061 L 22.207 52.061 L 22.207 36.064 L 22.207 36.064 Q 22.207 34.805 22.295 33.618 L 22.295 33.618 L 22.295 33.618 Q 22.383 32.432 22.822 31.509 L 22.822 31.509 L 22.822 31.509 Q 23.262 30.586 24.155 30.015 L 24.155 30.015 L 24.155 30.015 Q 25.049 29.443 26.66 29.443 L 26.66 29.443 L 26.66 29.443 Q 28.271 29.443 29.18 29.985 L 29.18 29.985 L 29.18 29.985 Q 30.088 30.527 30.542 31.289 L 30.542 31.289 L 30.542 31.289 Q 30.996 32.051 31.113 32.9 L 31.113 32.9 L 31.113 32.9 Q 31.23 33.75 31.23 34.365 L 31.23 34.365 L 31.23 34.365 Q 31.465 33.516 31.963 32.637 L 31.963 32.637 L 31.963 32.637 Q 32.461 31.758 33.237 31.055 L 33.237 31.055 L 33.237 31.055 Q 34.014 30.352 35.098 29.897 L 35.098 29.897 L 35.098 29.897 Q 36.182 29.443 37.617 29.443 L 37.617 29.443 L 37.617 29.443 Q 39.229 29.443 40.84 29.971 L 40.84 29.971 L 40.84 29.971 Q 42.451 30.498 43.74 31.729 L 43.74 31.729 L 43.74 31.729 Q 45.029 32.959 45.835 34.951 L 45.835 34.951 L 45.835 34.951 Q 46.641 36.943 46.641 39.873 L 46.641 39.873 L 46.641 39.873 Z  M 76.699 24.404 L 76.699 52.119 L 76.699 52.119 Q 76.699 53.35 76.611 54.536 L 76.611 54.536 L 76.611 54.536 Q 76.523 55.723 76.084 56.66 L 76.084 56.66 L 76.084 56.66 Q 75.645 57.598 74.766 58.169 L 74.766 58.169 L 74.766 58.169 Q 73.887 58.74 72.305 58.74 L 72.305 58.74 L 72.305 58.74 Q 70.693 58.74 69.785 58.198 L 69.785 58.198 L 69.785 58.198 Q 68.877 57.656 68.438 56.88 L 68.438 56.88 L 68.438 56.88 Q 67.998 56.104 67.896 55.254 L 67.896 55.254 L 67.896 55.254 Q 67.793 54.404 67.793 53.818 L 67.793 53.818 L 67.793 53.818 Q 67.529 54.668 67.046 55.547 L 67.046 55.547 L 67.046 55.547 Q 66.563 56.426 65.801 57.129 L 65.801 57.129 L 65.801 57.129 Q 65.039 57.832 63.97 58.286 L 63.97 58.286 L 63.97 58.286 Q 62.9 58.74 61.465 58.74 L 61.465 58.74 L 61.465 58.74 Q 59.854 58.74 58.242 58.213 L 58.242 58.213 L 58.242 58.213 Q 56.631 57.686 55.342 56.455 L 55.342 56.455 L 55.342 56.455 Q 54.053 55.225 53.247 53.247 L 53.247 53.247 L 53.247 53.247 Q 52.441 51.27 52.441 48.369 L 52.441 48.369 L 52.441 39.873 L 52.441 39.873 Q 52.441 36.943 53.247 34.966 L 53.247 34.966 L 53.247 34.966 Q 54.053 32.988 55.342 31.772 L 55.342 31.772 L 55.342 31.772 Q 56.631 30.557 58.242 30.029 L 58.242 30.029 L 58.242 30.029 Q 59.854 29.502 61.465 29.502 L 61.465 29.502 L 61.465 29.502 Q 62.9 29.502 63.97 29.941 L 63.97 29.941 L 63.97 29.941 Q 65.039 30.381 65.801 31.084 L 65.801 31.084 L 65.801 31.084 Q 66.563 31.787 67.046 32.666 L 67.046 32.666 L 67.046 32.666 Q 67.529 33.545 67.793 34.424 L 67.793 34.424 L 67.793 24.404 L 67.793 24.404 Q 67.793 23.145 67.925 21.929 L 67.925 21.929 L 67.925 21.929 Q 68.057 20.713 68.511 19.79 L 68.511 19.79 L 68.511 19.79 Q 68.965 18.867 69.858 18.296 L 69.858 18.296 L 69.858 18.296 Q 70.752 17.725 72.305 17.725 L 72.305 17.725 L 72.305 17.725 Q 73.77 17.725 74.648 18.296 L 74.648 18.296 L 74.648 18.296 Q 75.527 18.867 75.981 19.79 L 75.981 19.79 L 75.981 19.79 Q 76.436 20.713 76.567 21.929 L 76.567 21.929 L 76.567 21.929 Q 76.699 23.145 76.699 24.404 L 76.699 24.404 L 76.699 24.404 Z  M 61.465 40.518 L 61.465 47.607 L 61.465 47.607 Q 61.465 48.398 61.523 49.16 L 61.523 49.16 L 61.523 49.16 Q 61.582 49.922 61.846 50.537 L 61.846 50.537 L 61.846 50.537 Q 62.109 51.152 62.622 51.519 L 62.622 51.519 L 62.622 51.519 Q 63.135 51.885 64.043 51.885 L 64.043 51.885 L 64.043 51.885 Q 65.186 51.885 65.903 51.372 L 65.903 51.372 L 65.903 51.372 Q 66.621 50.859 67.031 49.79 L 67.031 49.79 L 67.031 49.79 Q 67.441 48.721 67.603 47.095 L 67.603 47.095 L 67.603 47.095 Q 67.764 45.469 67.793 43.213 L 67.793 43.213 L 67.793 43.213 Q 67.793 42.305 67.632 41.118 L 67.632 41.118 L 67.632 41.118 Q 67.471 39.932 67.061 38.877 L 67.061 38.877 L 67.061 38.877 Q 66.65 37.822 65.918 37.09 L 65.918 37.09 L 65.918 37.09 Q 65.186 36.357 64.043 36.357 L 64.043 36.357 L 64.043 36.357 Q 63.135 36.357 62.622 36.724 L 62.622 36.724 L 62.622 36.724 Q 62.109 37.09 61.846 37.676 L 61.846 37.676 L 61.846 37.676 Q 61.582 38.262 61.523 39.009 L 61.523 39.009 L 61.523 39.009 Q 61.465 39.756 61.465 40.518 L 61.465 40.518 L 61.465 40.518 Z  M 84.434 52.178 L 84.434 36.006 L 84.434 36.006 Q 84.434 34.775 84.565 33.604 L 84.565 33.604 L 84.565 33.604 Q 84.697 32.432 85.166 31.509 L 85.166 31.509 L 85.166 31.509 Q 85.635 30.586 86.514 30.015 L 86.514 30.015 L 86.514 30.015 Q 87.393 29.443 88.887 29.443 L 88.887 29.443 L 88.887 29.443 Q 90.381 29.443 91.26 30.015 L 91.26 30.015 L 91.26 30.015 Q 92.139 30.586 92.607 31.509 L 92.607 31.509 L 92.607 31.509 Q 93.076 32.432 93.208 33.604 L 93.208 33.604 L 93.208 33.604 Q 93.34 34.775 93.34 36.006 L 93.34 36.006 L 93.34 52.178 L 93.34 52.178 Q 93.34 53.408 93.208 54.595 L 93.208 54.595 L 93.208 54.595 Q 93.076 55.781 92.607 56.704 L 92.607 56.704 L 92.607 56.704 Q 92.139 57.627 91.26 58.184 L 91.26 58.184 L 91.26 58.184 Q 90.381 58.74 88.887 58.74 L 88.887 58.74 L 88.887 58.74 Q 87.393 58.74 86.514 58.184 L 86.514 58.184 L 86.514 58.184 Q 85.635 57.627 85.166 56.704 L 85.166 56.704 L 85.166 56.704 Q 84.697 55.781 84.565 54.595 L 84.565 54.595 L 84.565 54.595 Q 84.434 53.408 84.434 52.178 L 84.434 52.178 L 84.434 52.178 Z  M 93.398 22.178 L 93.398 22.178 L 93.398 22.178 Q 93.398 24.434 92.227 25.532 L 92.227 25.532 L 92.227 25.532 Q 91.055 26.631 88.945 26.631 L 88.945 26.631 L 88.945 26.631 Q 86.836 26.631 85.664 25.532 L 85.664 25.532 L 85.664 25.532 Q 84.492 24.434 84.492 22.178 L 84.492 22.178 L 84.492 22.178 Q 84.492 19.834 85.664 18.779 L 85.664 18.779 L 85.664 18.779 Q 86.836 17.725 88.945 17.725 L 88.945 17.725 L 88.945 17.725 Q 91.201 17.725 92.3 18.779 L 92.3 18.779 L 92.3 18.779 Q 93.398 19.834 93.398 22.178 Z  M 125.273 36.064 L 125.273 59.619 L 125.273 59.619 Q 125.273 62.256 124.556 64.072 L 124.556 64.072 L 124.556 64.072 Q 123.838 65.889 122.725 67.09 L 122.725 67.09 L 122.725 67.09 Q 121.611 68.291 120.249 68.965 L 120.249 68.965 L 120.249 68.965 Q 118.887 69.639 117.583 69.976 L 117.583 69.976 L 117.583 69.976 Q 116.279 70.313 115.195 70.386 L 115.195 70.386 L 115.195 70.386 Q 114.111 70.459 113.555 70.459 L 113.555 70.459 L 113.555 70.459 Q 111.475 70.459 109.395 70.166 L 109.395 70.166 L 109.395 70.166 Q 107.314 69.873 105.601 69.082 L 105.601 69.082 L 105.601 69.082 Q 103.887 68.291 102.759 66.943 L 102.759 66.943 L 102.759 66.943 Q 101.631 65.596 101.484 63.486 L 101.484 63.486 L 101.484 63.486 Q 101.484 63.135 101.602 62.695 L 101.602 62.695 L 101.602 62.695 Q 101.719 62.256 102.129 61.86 L 102.129 61.86 L 102.129 61.86 Q 102.539 61.465 103.359 61.187 L 103.359 61.187 L 103.359 61.187 Q 104.18 60.908 105.586 60.908 L 105.586 60.908 L 105.586 60.908 Q 107.285 60.908 108.193 61.187 L 108.193 61.187 L 108.193 61.187 Q 109.102 61.465 109.541 61.86 L 109.541 61.86 L 109.541 61.86 Q 109.98 62.256 110.112 62.71 L 110.112 62.71 L 110.112 62.71 Q 110.244 63.164 110.391 63.545 L 110.391 63.545 L 110.391 63.545 Q 110.625 64.16 111.313 64.409 L 111.313 64.409 L 111.313 64.409 Q 112.002 64.658 113.203 64.658 L 113.203 64.658 L 113.203 64.658 Q 114.287 64.658 114.917 64.16 L 114.917 64.16 L 114.917 64.16 Q 115.547 63.662 115.869 62.974 L 115.869 62.974 L 115.869 62.974 Q 116.191 62.285 116.279 61.567 L 116.279 61.567 L 116.279 61.567 Q 116.367 60.85 116.367 60.381 L 116.367 60.381 L 116.367 53.818 L 116.367 53.818 Q 116.104 54.697 115.62 55.576 L 115.62 55.576 L 115.62 55.576 Q 115.137 56.455 114.375 57.158 L 114.375 57.158 L 114.375 57.158 Q 113.613 57.861 112.544 58.301 L 112.544 58.301 L 112.544 58.301 Q 111.475 58.74 110.039 58.74 L 110.039 58.74 L 110.039 58.74 Q 108.428 58.74 106.816 58.213 L 106.816 58.213 L 106.816 58.213 Q 105.205 57.686 103.901 56.47 L 103.901 56.47 L 103.901 56.47 Q 102.598 55.254 101.777 53.262 L 101.777 53.262 L 101.777 53.262 Q 100.957 51.27 100.957 48.311 L 100.957 48.311 L 100.957 39.814 L 100.957 39.814 Q 100.957 36.914 101.777 34.937 L 101.777 34.937 L 101.777 34.937 Q 102.598 32.959 103.901 31.729 L 103.901 31.729 L 103.901 31.729 Q 105.205 30.498 106.816 29.971 L 106.816 29.971 L 106.816 29.971 Q 108.428 29.443 110.039 29.443 L 110.039 29.443 L 110.039 29.443 Q 111.475 29.443 112.544 29.897 L 112.544 29.897 L 112.544 29.897 Q 113.613 30.352 114.375 31.055 L 114.375 31.055 L 114.375 31.055 Q 115.137 31.758 115.62 32.637 L 115.62 32.637 L 115.62 32.637 Q 116.104 33.516 116.367 34.365 L 116.367 34.365 L 116.367 34.365 Q 116.367 33.779 116.47 32.93 L 116.47 32.93 L 116.47 32.93 Q 116.572 32.08 117.012 31.304 L 117.012 31.304 L 117.012 31.304 Q 117.451 30.527 118.359 29.985 L 118.359 29.985 L 118.359 29.985 Q 119.268 29.443 120.879 29.443 L 120.879 29.443 L 120.879 29.443 Q 122.461 29.443 123.34 30.015 L 123.34 30.015 L 123.34 30.015 Q 124.219 30.586 124.658 31.523 L 124.658 31.523 L 124.658 31.523 Q 125.098 32.461 125.186 33.647 L 125.186 33.647 L 125.186 33.647 Q 125.273 34.834 125.273 36.064 L 125.273 36.064 L 125.273 36.064 Z  M 110.039 40.576 L 110.039 47.666 L 110.039 47.666 Q 110.039 48.428 110.098 49.189 L 110.098 49.189 L 110.098 49.189 Q 110.156 49.951 110.42 50.552 L 110.42 50.552 L 110.42 50.552 Q 110.684 51.152 111.196 51.519 L 111.196 51.519 L 111.196 51.519 Q 111.709 51.885 112.617 51.885 L 112.617 51.885 L 112.617 51.885 Q 113.76 51.885 114.492 51.152 L 114.492 51.152 L 114.492 51.152 Q 115.225 50.42 115.635 49.351 L 115.635 49.351 L 115.635 49.351 Q 116.045 48.281 116.206 47.095 L 116.206 47.095 L 116.206 47.095 Q 116.367 45.908 116.367 44.971 L 116.367 44.971 L 116.367 44.971 Q 116.338 42.744 116.177 41.104 L 116.177 41.104 L 116.177 41.104 Q 116.016 39.463 115.605 38.394 L 115.605 38.394 L 115.605 38.394 Q 115.195 37.324 114.478 36.812 L 114.478 36.812 L 114.478 36.812 Q 113.76 36.299 112.617 36.299 L 112.617 36.299 L 112.617 36.299 Q 111.709 36.299 111.196 36.665 L 111.196 36.665 L 111.196 36.665 Q 110.684 37.031 110.42 37.646 L 110.42 37.646 L 110.42 37.646 Q 110.156 38.262 110.098 39.023 L 110.098 39.023 L 110.098 39.023 Q 110.039 39.785 110.039 40.576 L 110.039 40.576 L 110.039 40.576 Z  M 131.074 47.725 L 131.074 40.459 L 131.074 40.459 Q 131.074 37.764 131.807 35.889 L 131.807 35.889 L 131.807 35.889 Q 132.539 34.014 133.696 32.754 L 133.696 32.754 L 133.696 32.754 Q 134.854 31.494 136.274 30.791 L 136.274 30.791 L 136.274 30.791 Q 137.695 30.088 139.072 29.736 L 139.072 29.736 L 139.072 29.736 Q 140.449 29.385 141.636 29.297 L 141.636 29.297 L 141.636 29.297 Q 142.822 29.209 143.496 29.209 L 143.496 29.209 L 143.496 29.209 Q 144.17 29.209 145.342 29.297 L 145.342 29.297 L 145.342 29.297 Q 146.514 29.385 147.847 29.736 L 147.847 29.736 L 147.847 29.736 Q 149.18 30.088 150.542 30.791 L 150.542 30.791 L 150.542 30.791 Q 151.904 31.494 153.003 32.754 L 153.003 32.754 L 153.003 32.754 Q 154.102 34.014 154.805 35.889 L 154.805 35.889 L 154.805 35.889 Q 155.508 37.764 155.508 40.459 L 155.508 40.459 L 155.508 47.725 L 155.508 47.725 Q 155.508 50.42 154.805 52.295 L 154.805 52.295 L 154.805 52.295 Q 154.102 54.17 153.003 55.43 L 153.003 55.43 L 153.003 55.43 Q 151.904 56.689 150.542 57.393 L 150.542 57.393 L 150.542 57.393 Q 149.18 58.096 147.847 58.447 L 147.847 58.447 L 147.847 58.447 Q 146.514 58.799 145.342 58.887 L 145.342 58.887 L 145.342 58.887 Q 144.17 58.975 143.496 58.975 L 143.496 58.975 L 143.496 58.975 Q 142.822 58.975 141.636 58.887 L 141.636 58.887 L 141.636 58.887 Q 140.449 58.799 139.072 58.447 L 139.072 58.447 L 139.072 58.447 Q 137.695 58.096 136.274 57.393 L 136.274 57.393 L 136.274 57.393 Q 134.854 56.689 133.696 55.43 L 133.696 55.43 L 133.696 55.43 Q 132.539 54.17 131.807 52.295 L 131.807 52.295 L 131.807 52.295 Q 131.074 50.42 131.074 47.725 L 131.074 47.725 L 131.074 47.725 Z  M 140.098 39.17 L 140.098 49.775 L 140.098 49.775 Q 140.127 50.625 140.508 51.27 L 140.508 51.27 L 140.508 51.27 Q 140.83 51.855 141.519 52.31 L 141.519 52.31 L 141.519 52.31 Q 142.207 52.764 143.496 52.764 L 143.496 52.764 L 143.496 52.764 Q 144.727 52.764 145.386 52.31 L 145.386 52.31 L 145.386 52.31 Q 146.045 51.855 146.367 51.27 L 146.367 51.27 L 146.367 51.27 Q 146.719 50.625 146.777 49.775 L 146.777 49.775 L 146.777 39.17 L 146.777 39.17 Q 146.719 38.291 146.367 37.559 L 146.367 37.559 L 146.367 37.559 Q 146.045 36.973 145.386 36.46 L 145.386 36.46 L 145.386 36.46 Q 144.727 35.947 143.496 35.947 L 143.496 35.947 L 143.496 35.947 Q 142.207 35.947 141.519 36.46 L 141.519 36.46 L 141.519 36.46 Q 140.83 36.973 140.508 37.559 L 140.508 37.559 L 140.508 37.559 Q 140.127 38.291 140.098 39.17 L 140.098 39.17 L 140.098 39.17 Z " fill="rgb(75,0,130)"/></g></svg>